<mxfile host="app.diagrams.net" modified="2023-06-12T17:08:08.938Z" agent="Mozilla/5.0 (Windows NT 10.0; Win64; x64; rv:109.0) Gecko/20100101 Firefox/115.0" etag="jzn9GfT2ZAQCmkIxA7Bf" version="21.3.8" type="device">
  <diagram name="PÃ¡gina-1" id="yNTbNvu44qaYrOllC0qf">
    <mxGraphModel dx="798" dy="792" grid="1" gridSize="10" guides="1" tooltips="1" connect="1" arrows="1" fold="1" page="1" pageScale="1" pageWidth="827" pageHeight="1169" math="0" shadow="0">
      <root>
        <mxCell id="0" />
        <mxCell id="1" parent="0" />
        <mxCell id="0ZMdcath3wUsGajUXjvQ-10" value="(0,M)" style="edgeStyle=orthogonalEdgeStyle;rounded=0;orthogonalLoop=1;jettySize=auto;html=1;endArrow=none;endFill=0;" parent="1" source="0ZMdcath3wUsGajUXjvQ-2" target="0ZMdcath3wUsGajUXjvQ-9" edge="1">
          <mxGeometry x="-0.1111" y="-10" relative="1" as="geometry">
            <mxPoint as="offset" />
          </mxGeometry>
        </mxCell>
        <mxCell id="0ZMdcath3wUsGajUXjvQ-26" value="(0,N)" style="edgeStyle=orthogonalEdgeStyle;rounded=0;orthogonalLoop=1;jettySize=auto;html=1;endArrow=none;endFill=0;" parent="1" source="0ZMdcath3wUsGajUXjvQ-2" target="0ZMdcath3wUsGajUXjvQ-25" edge="1">
          <mxGeometry relative="1" as="geometry" />
        </mxCell>
        <mxCell id="0ZMdcath3wUsGajUXjvQ-2" value="Pedido" style="rhombus;whiteSpace=wrap;html=1;" parent="1" vertex="1">
          <mxGeometry x="390" y="330" width="80" height="80" as="geometry" />
        </mxCell>
        <mxCell id="0ZMdcath3wUsGajUXjvQ-3" value="Id_prato" style="endArrow=none;html=1;rounded=0;entryX=0;entryY=0;entryDx=0;entryDy=0;endFill=0;startArrow=oval;startFill=0;" parent="1" target="0ZMdcath3wUsGajUXjvQ-2" edge="1">
          <mxGeometry x="-1" y="-14" width="50" height="50" relative="1" as="geometry">
            <mxPoint x="410" y="300" as="sourcePoint" />
            <mxPoint x="450" y="350" as="targetPoint" />
            <mxPoint x="4" y="-10" as="offset" />
          </mxGeometry>
        </mxCell>
        <mxCell id="0ZMdcath3wUsGajUXjvQ-4" value="Id_pedido" style="endArrow=oval;html=1;rounded=0;endFill=1;exitX=0.5;exitY=0;exitDx=0;exitDy=0;" parent="1" source="0ZMdcath3wUsGajUXjvQ-2" edge="1">
          <mxGeometry x="1" y="10" width="50" height="50" relative="1" as="geometry">
            <mxPoint x="410" y="340" as="sourcePoint" />
            <mxPoint x="430" y="280" as="targetPoint" />
            <mxPoint x="10" y="-10" as="offset" />
          </mxGeometry>
        </mxCell>
        <mxCell id="0ZMdcath3wUsGajUXjvQ-5" value="Id_mesa" style="endArrow=oval;html=1;rounded=0;endFill=0;exitX=1;exitY=0;exitDx=0;exitDy=0;" parent="1" source="0ZMdcath3wUsGajUXjvQ-2" edge="1">
          <mxGeometry x="1" y="-14" width="50" height="50" relative="1" as="geometry">
            <mxPoint x="410" y="340" as="sourcePoint" />
            <mxPoint x="450" y="300" as="targetPoint" />
            <mxPoint x="-4" y="-10" as="offset" />
          </mxGeometry>
        </mxCell>
        <mxCell id="0ZMdcath3wUsGajUXjvQ-6" value="quantidade" style="endArrow=oval;html=1;rounded=0;endFill=0;exitX=0;exitY=1;exitDx=0;exitDy=0;" parent="1" source="0ZMdcath3wUsGajUXjvQ-2" edge="1">
          <mxGeometry x="1" y="-14" width="50" height="50" relative="1" as="geometry">
            <mxPoint x="410" y="430" as="sourcePoint" />
            <mxPoint x="410" y="440" as="targetPoint" />
            <mxPoint x="4" y="10" as="offset" />
          </mxGeometry>
        </mxCell>
        <mxCell id="0ZMdcath3wUsGajUXjvQ-7" value="entregue" style="endArrow=oval;html=1;rounded=0;endFill=0;exitX=0.5;exitY=1;exitDx=0;exitDy=0;" parent="1" source="0ZMdcath3wUsGajUXjvQ-2" edge="1">
          <mxGeometry x="1" y="10" width="50" height="50" relative="1" as="geometry">
            <mxPoint x="410" y="420" as="sourcePoint" />
            <mxPoint x="430" y="460" as="targetPoint" />
            <mxPoint x="-10" y="10" as="offset" />
          </mxGeometry>
        </mxCell>
        <mxCell id="0ZMdcath3wUsGajUXjvQ-8" value="data" style="endArrow=oval;html=1;rounded=0;endFill=0;exitX=1;exitY=1;exitDx=0;exitDy=0;" parent="1" source="0ZMdcath3wUsGajUXjvQ-2" edge="1">
          <mxGeometry x="1" y="10" width="50" height="50" relative="1" as="geometry">
            <mxPoint x="410" y="450" as="sourcePoint" />
            <mxPoint x="450" y="440" as="targetPoint" />
            <mxPoint x="-10" y="10" as="offset" />
          </mxGeometry>
        </mxCell>
        <mxCell id="0ZMdcath3wUsGajUXjvQ-12" value="(0,N)" style="edgeStyle=orthogonalEdgeStyle;rounded=0;orthogonalLoop=1;jettySize=auto;html=1;endArrow=none;endFill=0;" parent="1" source="0ZMdcath3wUsGajUXjvQ-9" target="0ZMdcath3wUsGajUXjvQ-11" edge="1">
          <mxGeometry relative="1" as="geometry" />
        </mxCell>
        <mxCell id="0ZMdcath3wUsGajUXjvQ-9" value="Mesa" style="rounded=0;whiteSpace=wrap;html=1;" parent="1" vertex="1">
          <mxGeometry x="180" y="340" width="120" height="60" as="geometry" />
        </mxCell>
        <mxCell id="0ZMdcath3wUsGajUXjvQ-18" value="(0,M)" style="edgeStyle=orthogonalEdgeStyle;rounded=0;orthogonalLoop=1;jettySize=auto;html=1;endArrow=none;endFill=0;" parent="1" source="0ZMdcath3wUsGajUXjvQ-11" target="0ZMdcath3wUsGajUXjvQ-17" edge="1">
          <mxGeometry relative="1" as="geometry" />
        </mxCell>
        <mxCell id="apo0UsHVYXkvRJTaQ5Mh-2" value="" style="edgeStyle=orthogonalEdgeStyle;rounded=0;orthogonalLoop=1;jettySize=auto;html=1;endArrow=none;endFill=0;" edge="1" parent="1" source="0ZMdcath3wUsGajUXjvQ-11" target="apo0UsHVYXkvRJTaQ5Mh-1">
          <mxGeometry relative="1" as="geometry" />
        </mxCell>
        <mxCell id="0ZMdcath3wUsGajUXjvQ-11" value="Paga" style="rhombus;whiteSpace=wrap;html=1;" parent="1" vertex="1">
          <mxGeometry x="200" y="140" width="80" height="80" as="geometry" />
        </mxCell>
        <mxCell id="0ZMdcath3wUsGajUXjvQ-13" value="id" style="endArrow=oval;html=1;rounded=0;endFill=1;exitX=0;exitY=0;exitDx=0;exitDy=0;" parent="1" source="0ZMdcath3wUsGajUXjvQ-9" edge="1">
          <mxGeometry x="1" y="10" width="50" height="50" relative="1" as="geometry">
            <mxPoint x="220" y="390" as="sourcePoint" />
            <mxPoint x="150" y="340" as="targetPoint" />
            <mxPoint x="-10" y="-10" as="offset" />
          </mxGeometry>
        </mxCell>
        <mxCell id="0ZMdcath3wUsGajUXjvQ-14" value="numero_integrantes" style="endArrow=oval;html=1;rounded=0;endFill=0;exitX=0;exitY=0.25;exitDx=0;exitDy=0;" parent="1" source="0ZMdcath3wUsGajUXjvQ-9" edge="1">
          <mxGeometry x="1" y="60" width="50" height="50" relative="1" as="geometry">
            <mxPoint x="220" y="390" as="sourcePoint" />
            <mxPoint x="150" y="355" as="targetPoint" />
            <mxPoint x="-60" y="-60" as="offset" />
          </mxGeometry>
        </mxCell>
        <mxCell id="0ZMdcath3wUsGajUXjvQ-15" value="consumo_total" style="endArrow=oval;html=1;rounded=0;endFill=0;exitX=0;exitY=0.5;exitDx=0;exitDy=0;" parent="1" source="0ZMdcath3wUsGajUXjvQ-9" edge="1">
          <mxGeometry x="1" y="50" width="50" height="50" relative="1" as="geometry">
            <mxPoint x="180" y="390" as="sourcePoint" />
            <mxPoint x="150" y="370" as="targetPoint" />
            <mxPoint x="-50" y="-50" as="offset" />
          </mxGeometry>
        </mxCell>
        <mxCell id="0ZMdcath3wUsGajUXjvQ-16" value="pago" style="endArrow=oval;html=1;rounded=0;endFill=0;exitX=0;exitY=0.75;exitDx=0;exitDy=0;" parent="1" source="0ZMdcath3wUsGajUXjvQ-9" edge="1">
          <mxGeometry x="1" y="20" width="50" height="50" relative="1" as="geometry">
            <mxPoint x="180" y="390" as="sourcePoint" />
            <mxPoint x="150" y="385" as="targetPoint" />
            <mxPoint x="-20" y="-20" as="offset" />
          </mxGeometry>
        </mxCell>
        <mxCell id="0ZMdcath3wUsGajUXjvQ-17" value="Cliente" style="rounded=0;whiteSpace=wrap;html=1;" parent="1" vertex="1">
          <mxGeometry x="180" y="20" width="120" height="60" as="geometry" />
        </mxCell>
        <mxCell id="0ZMdcath3wUsGajUXjvQ-19" value="valor" style="endArrow=none;html=1;rounded=0;entryX=0;entryY=0;entryDx=0;entryDy=0;endFill=0;startArrow=oval;startFill=0;" parent="1" target="0ZMdcath3wUsGajUXjvQ-11" edge="1">
          <mxGeometry x="-1" y="-20" width="50" height="50" relative="1" as="geometry">
            <mxPoint x="180" y="160" as="sourcePoint" />
            <mxPoint x="220" y="170" as="targetPoint" />
            <mxPoint x="-20" y="-20" as="offset" />
          </mxGeometry>
        </mxCell>
        <mxCell id="0ZMdcath3wUsGajUXjvQ-21" value="id" style="endArrow=oval;html=1;rounded=0;endFill=1;exitX=0;exitY=0;exitDx=0;exitDy=0;" parent="1" source="0ZMdcath3wUsGajUXjvQ-17" edge="1">
          <mxGeometry x="1" y="10" width="50" height="50" relative="1" as="geometry">
            <mxPoint x="170" y="160" as="sourcePoint" />
            <mxPoint x="140" y="20" as="targetPoint" />
            <mxPoint x="-10" y="-10" as="offset" />
          </mxGeometry>
        </mxCell>
        <mxCell id="0ZMdcath3wUsGajUXjvQ-22" value="cpf" style="endArrow=oval;html=1;rounded=0;endFill=0;exitX=0;exitY=0.25;exitDx=0;exitDy=0;" parent="1" source="0ZMdcath3wUsGajUXjvQ-17" edge="1">
          <mxGeometry x="1" y="20" width="50" height="50" relative="1" as="geometry">
            <mxPoint x="170" y="160" as="sourcePoint" />
            <mxPoint x="140" y="35" as="targetPoint" />
            <mxPoint x="-20" y="-20" as="offset" />
          </mxGeometry>
        </mxCell>
        <mxCell id="0ZMdcath3wUsGajUXjvQ-23" value="Nome" style="endArrow=oval;html=1;rounded=0;endFill=0;exitX=0;exitY=0.5;exitDx=0;exitDy=0;" parent="1" source="0ZMdcath3wUsGajUXjvQ-17" edge="1">
          <mxGeometry x="1" y="20" width="50" height="50" relative="1" as="geometry">
            <mxPoint x="170" y="160" as="sourcePoint" />
            <mxPoint x="140" y="50" as="targetPoint" />
            <mxPoint x="-20" y="-20" as="offset" />
          </mxGeometry>
        </mxCell>
        <mxCell id="0ZMdcath3wUsGajUXjvQ-24" value="mesa" style="endArrow=oval;html=1;rounded=0;endFill=0;exitX=0;exitY=1;exitDx=0;exitDy=0;" parent="1" source="0ZMdcath3wUsGajUXjvQ-11" edge="1">
          <mxGeometry x="1" y="20" width="50" height="50" relative="1" as="geometry">
            <mxPoint x="170" y="160" as="sourcePoint" />
            <mxPoint x="180" y="200" as="targetPoint" />
            <mxPoint x="-20" y="-20" as="offset" />
          </mxGeometry>
        </mxCell>
        <mxCell id="0ZMdcath3wUsGajUXjvQ-25" value="Prato" style="rounded=0;whiteSpace=wrap;html=1;" parent="1" vertex="1">
          <mxGeometry x="560" y="340" width="120" height="60" as="geometry" />
        </mxCell>
        <mxCell id="0ZMdcath3wUsGajUXjvQ-30" value="&lt;div&gt;(1,M)&lt;/div&gt;" style="edgeStyle=orthogonalEdgeStyle;rounded=0;orthogonalLoop=1;jettySize=auto;html=1;endArrow=none;endFill=0;" parent="1" source="0ZMdcath3wUsGajUXjvQ-27" target="0ZMdcath3wUsGajUXjvQ-25" edge="1">
          <mxGeometry relative="1" as="geometry" />
        </mxCell>
        <mxCell id="0ZMdcath3wUsGajUXjvQ-27" value="Ã" style="rhombus;whiteSpace=wrap;html=1;" parent="1" vertex="1">
          <mxGeometry x="580" y="200" width="80" height="80" as="geometry" />
        </mxCell>
        <mxCell id="0ZMdcath3wUsGajUXjvQ-29" value="(1,M)" style="edgeStyle=orthogonalEdgeStyle;rounded=0;orthogonalLoop=1;jettySize=auto;html=1;endArrow=none;endFill=0;" parent="1" source="0ZMdcath3wUsGajUXjvQ-28" target="0ZMdcath3wUsGajUXjvQ-25" edge="1">
          <mxGeometry relative="1" as="geometry" />
        </mxCell>
        <mxCell id="0ZMdcath3wUsGajUXjvQ-28" value="Ã" style="rhombus;whiteSpace=wrap;html=1;" parent="1" vertex="1">
          <mxGeometry x="580" y="460" width="80" height="80" as="geometry" />
        </mxCell>
        <mxCell id="0ZMdcath3wUsGajUXjvQ-31" value="id" style="endArrow=oval;html=1;rounded=0;endFill=1;exitX=1;exitY=0;exitDx=0;exitDy=0;" parent="1" source="0ZMdcath3wUsGajUXjvQ-25" edge="1">
          <mxGeometry x="1" y="10" width="50" height="50" relative="1" as="geometry">
            <mxPoint x="590" y="380" as="sourcePoint" />
            <mxPoint x="720" y="340" as="targetPoint" />
            <mxPoint x="10" y="10" as="offset" />
          </mxGeometry>
        </mxCell>
        <mxCell id="0ZMdcath3wUsGajUXjvQ-32" value="preÃ§o" style="endArrow=oval;html=1;rounded=0;exitX=1;exitY=0.25;exitDx=0;exitDy=0;endFill=0;" parent="1" source="0ZMdcath3wUsGajUXjvQ-25" edge="1">
          <mxGeometry x="1" y="20" width="50" height="50" relative="1" as="geometry">
            <mxPoint x="590" y="380" as="sourcePoint" />
            <mxPoint x="720" y="355" as="targetPoint" />
            <mxPoint x="20" y="20" as="offset" />
          </mxGeometry>
        </mxCell>
        <mxCell id="0ZMdcath3wUsGajUXjvQ-33" value="nome" style="endArrow=oval;html=1;rounded=0;endFill=0;exitX=1;exitY=0.5;exitDx=0;exitDy=0;" parent="1" source="0ZMdcath3wUsGajUXjvQ-25" edge="1">
          <mxGeometry x="1" y="20" width="50" height="50" relative="1" as="geometry">
            <mxPoint x="690" y="370" as="sourcePoint" />
            <mxPoint x="720" y="369.79" as="targetPoint" />
            <mxPoint x="20" y="20" as="offset" />
          </mxGeometry>
        </mxCell>
        <mxCell id="0ZMdcath3wUsGajUXjvQ-37" value="(0,N)" style="edgeStyle=orthogonalEdgeStyle;rounded=0;orthogonalLoop=1;jettySize=auto;html=1;endArrow=none;endFill=0;" parent="1" source="0ZMdcath3wUsGajUXjvQ-36" target="0ZMdcath3wUsGajUXjvQ-27" edge="1">
          <mxGeometry relative="1" as="geometry" />
        </mxCell>
        <mxCell id="0ZMdcath3wUsGajUXjvQ-36" value="Categoria" style="rounded=0;whiteSpace=wrap;html=1;" parent="1" vertex="1">
          <mxGeometry x="560" y="80" width="120" height="60" as="geometry" />
        </mxCell>
        <mxCell id="0ZMdcath3wUsGajUXjvQ-38" value="id" style="endArrow=oval;html=1;rounded=0;endFill=1;exitX=1;exitY=0;exitDx=0;exitDy=0;" parent="1" source="0ZMdcath3wUsGajUXjvQ-36" edge="1">
          <mxGeometry x="1" y="10" width="50" height="50" relative="1" as="geometry">
            <mxPoint x="690" y="80" as="sourcePoint" />
            <mxPoint x="720" y="80" as="targetPoint" />
            <mxPoint x="10" y="10" as="offset" />
          </mxGeometry>
        </mxCell>
        <mxCell id="0ZMdcath3wUsGajUXjvQ-39" value="nome" style="endArrow=oval;html=1;rounded=0;endFill=0;exitX=1;exitY=0.5;exitDx=0;exitDy=0;" parent="1" source="0ZMdcath3wUsGajUXjvQ-36" edge="1">
          <mxGeometry x="1" y="20" width="50" height="50" relative="1" as="geometry">
            <mxPoint x="690" y="110" as="sourcePoint" />
            <mxPoint x="720" y="109.79000000000002" as="targetPoint" />
            <mxPoint x="20" y="20" as="offset" />
          </mxGeometry>
        </mxCell>
        <mxCell id="0ZMdcath3wUsGajUXjvQ-41" value="(0,N)" style="edgeStyle=orthogonalEdgeStyle;rounded=0;orthogonalLoop=1;jettySize=auto;html=1;endArrow=none;endFill=0;" parent="1" source="0ZMdcath3wUsGajUXjvQ-40" target="0ZMdcath3wUsGajUXjvQ-28" edge="1">
          <mxGeometry relative="1" as="geometry" />
        </mxCell>
        <mxCell id="0ZMdcath3wUsGajUXjvQ-40" value="Tipo" style="rounded=0;whiteSpace=wrap;html=1;" parent="1" vertex="1">
          <mxGeometry x="560" y="600" width="120" height="60" as="geometry" />
        </mxCell>
        <mxCell id="0ZMdcath3wUsGajUXjvQ-42" value="id" style="endArrow=oval;html=1;rounded=0;endFill=1;exitX=1;exitY=0;exitDx=0;exitDy=0;" parent="1" edge="1">
          <mxGeometry x="1" y="10" width="50" height="50" relative="1" as="geometry">
            <mxPoint x="680" y="600" as="sourcePoint" />
            <mxPoint x="720" y="600" as="targetPoint" />
            <mxPoint x="10" y="10" as="offset" />
          </mxGeometry>
        </mxCell>
        <mxCell id="0ZMdcath3wUsGajUXjvQ-43" value="nome" style="endArrow=oval;html=1;rounded=0;endFill=0;exitX=1;exitY=0.5;exitDx=0;exitDy=0;" parent="1" edge="1">
          <mxGeometry x="1" y="20" width="50" height="50" relative="1" as="geometry">
            <mxPoint x="680" y="630" as="sourcePoint" />
            <mxPoint x="720" y="629.79" as="targetPoint" />
            <mxPoint x="20" y="20" as="offset" />
          </mxGeometry>
        </mxCell>
        <mxCell id="apo0UsHVYXkvRJTaQ5Mh-1" value="MÃ©todo de Pagamento" style="rounded=0;whiteSpace=wrap;html=1;" vertex="1" parent="1">
          <mxGeometry x="380" y="150" width="120" height="60" as="geometry" />
        </mxCell>
        <mxCell id="apo0UsHVYXkvRJTaQ5Mh-3" value="id" style="endArrow=oval;html=1;rounded=0;endFill=1;exitX=0.25;exitY=0;exitDx=0;exitDy=0;" edge="1" parent="1" source="apo0UsHVYXkvRJTaQ5Mh-1">
          <mxGeometry x="1" y="10" width="50" height="50" relative="1" as="geometry">
            <mxPoint x="280" y="210" as="sourcePoint" />
            <mxPoint x="410" y="120" as="targetPoint" />
            <mxPoint x="10" y="-10" as="offset" />
          </mxGeometry>
        </mxCell>
        <mxCell id="apo0UsHVYXkvRJTaQ5Mh-4" value="Nome" style="endArrow=oval;html=1;rounded=0;endFill=0;" edge="1" parent="1">
          <mxGeometry x="1" y="10" width="50" height="50" relative="1" as="geometry">
            <mxPoint x="440" y="150" as="sourcePoint" />
            <mxPoint x="440" y="120" as="targetPoint" />
            <mxPoint x="10" y="-10" as="offset" />
          </mxGeometry>
        </mxCell>
      </root>
    </mxGraphModel>
  </diagram>
</mxfile>
